HIERARCHY
ROOT Hips
{
	OFFSET 0.000000 0.000000 0.000000
	CHANNELS 6 Xposition Yposition Zposition Xrotation Yrotation Zrotation
	JOINT LeftUpLeg_virtual
	{
		OFFSET 0.000000 0.000000 0.000000
		CHANNELS 3 Xrotation Yrotation Zrotation
		JOINT LeftUpLeg
		{
			OFFSET 11.394100 -6.187798 -0.413800
			CHANNELS 3 Xrotation Yrotation Zrotation
			JOINT LeftLeg
			{
				OFFSET 0.430247 -32.302673 3.732800
				CHANNELS 3 Xrotation Yrotation Zrotation
				JOINT LeftFoot
				{
					OFFSET -0.430247 -48.264931 -6.423300
					CHANNELS 3 Xrotation Yrotation Zrotation
					JOINT LeftToeBase
					{
						OFFSET 4.230900 -16.068199 23.438400
						CHANNELS 3 Xrotation Yrotation Zrotation
						JOINT LeftToe_End
						{
							OFFSET 4.510700 0.695400 19.974600
							CHANNELS 3 Xrotation Yrotation Zrotation
							End Site
							{
								OFFSET 0 0 0
							}
						}
					}
				}
			}
		}
	}
	JOINT RightUpLeg_virtual
	{
		OFFSET 0.000000 0.000000 0.000000
		CHANNELS 3 Xrotation Yrotation Zrotation
		JOINT RightUpLeg
		{
			OFFSET -11.333700 -6.187798 -0.413800
			CHANNELS 3 Xrotation Yrotation Zrotation
			JOINT RightLeg
			{
				OFFSET -0.430392 -32.302628 3.733000
				CHANNELS 3 Xrotation Yrotation Zrotation
				JOINT RightFoot
				{
					OFFSET 0.430392 -48.264973 -6.423500
					CHANNELS 3 Xrotation Yrotation Zrotation
					JOINT RightToeBase
					{
						OFFSET -4.230900 -16.068199 23.438400
						CHANNELS 3 Xrotation Yrotation Zrotation
						JOINT RightToe_End
						{
							OFFSET -4.510700 0.695400 19.974600
							CHANNELS 3 Xrotation Yrotation Zrotation
							End Site
							{
								OFFSET 0 0 0
							}
						}
					}
				}
			}
		}
	}
	JOINT Spine_virtual
	{
		OFFSET 0.000000 0.000000 0.000000
		CHANNELS 3 Xrotation Yrotation Zrotation
		JOINT Spine
		{
			OFFSET -0.002400 12.777504 0.315300
			CHANNELS 3 Xrotation Yrotation Zrotation
			JOINT Spine1
			{
				OFFSET -0.002067 5.816869 0.032633
				CHANNELS 3 Xrotation Yrotation Zrotation
				JOINT Spine1_split
				{
					OFFSET -0.002067 5.816869 0.032633
					CHANNELS 3 Xrotation Yrotation Zrotation
					JOINT Spine2
					{
						OFFSET -0.002067 5.816869 0.032633
						CHANNELS 3 Xrotation Yrotation Zrotation
						JOINT Neck_virtual
						{
							OFFSET 0.000000 0.000000 0.000000
							CHANNELS 3 Xrotation Yrotation Zrotation
							JOINT Neck
							{
								OFFSET -0.003700 21.199493 -0.826900
								CHANNELS 3 Xrotation Yrotation Zrotation
								JOINT Head
								{
									OFFSET 0.000000 20.442200 4.834800
									CHANNELS 3 Xrotation Yrotation Zrotation
									JOINT HeadTop_End
									{
										OFFSET 0.000000 34.668396 4.968400
										CHANNELS 3 Xrotation Yrotation Zrotation
										End Site
										{
											OFFSET 0 0 0
										}
									}
								}
							}
						}
						JOINT LeftShoulder_virtual
						{
							OFFSET 0.000000 0.000000 0.000000
							CHANNELS 3 Xrotation Yrotation Zrotation
							JOINT LeftShoulder
							{
								OFFSET 3.288150 8.794197 -1.372250
								CHANNELS 3 Xrotation Yrotation Zrotation
								JOINT LeftShoulder_split
								{
									OFFSET 3.288150 8.794197 -1.372250
									CHANNELS 3 Xrotation Yrotation Zrotation
									JOINT LeftArm
									{
										OFFSET 11.953299 -2.279007 -0.146200
										CHANNELS 3 Xrotation Yrotation Zrotation
										JOINT LeftForeArm
										{
											OFFSET 18.448900 0.000000 0.000000
											CHANNELS 3 Xrotation Yrotation Zrotation
											JOINT LeftHand
											{
												OFFSET 29.527798 0.000000 0.000000
												CHANNELS 3 Xrotation Yrotation Zrotation
												End Site
												{
													OFFSET 0 0 0
												}
											}
										}
									}
								}
							}
						}
						JOINT RightShoulder_virtual
						{
							OFFSET 0.000000 0.000000 0.000000
							CHANNELS 3 Xrotation Yrotation Zrotation
							JOINT RightShoulder
							{
								OFFSET -3.249400 8.794197 -1.372250
								CHANNELS 3 Xrotation Yrotation Zrotation
								JOINT RightShoulder_split
								{
									OFFSET -3.249400 8.794197 -1.372250
									CHANNELS 3 Xrotation Yrotation Zrotation
									JOINT RightArm
									{
										OFFSET -11.953299 -2.279007 -0.146200
										CHANNELS 3 Xrotation Yrotation Zrotation
										JOINT RightForeArm
										{
											OFFSET -18.448900 0.000000 0.000000
											CHANNELS 3 Xrotation Yrotation Zrotation
											JOINT RightHand
											{
												OFFSET -29.527802 0.000000 0.000000
												CHANNELS 3 Xrotation Yrotation Zrotation
												End Site
												{
													OFFSET 0 0 0
												}
											}
										}
									}
								}
							}
						}
					}
				}
			}
		}
	}
}
MOTION
Frames: 4
Frame Time: 0.03333333
8.901805 77.955200 -14.802713 0.000000 0.000000 0.000000 8.399444 -77.250765 13.244649 -36.350072 -10.913975 22.774747 49.987965 -15.925722 6.302826 -1.621476 3.223130 -23.830359 -18.277839 -1.847137 -2.585807 0.000000 0.000000 0.000000 8.395500 -75.849032 13.411582 -23.687735 3.691658 -27.816628 47.313328 20.436706 -8.548414 -16.936253 -14.680607 42.274452 2.351965 11.522843 -35.258263 0.000000 0.000000 0.000000 5.425496 -74.339601 8.450286 0.210309 5.106264 4.117403 5.307640 2.621100 1.551295 0.292612 -0.261260 0.077955 0.000000 0.000000 0.000000 6.423829 4.105411 1.879052 -7.621388 11.274831 0.288346 -5.923421 9.768583 -8.589395 0.000000 0.000000 0.000000 4.405299 3.488553 0.914994 0.529113 8.819406 -3.258117 -2.406379 -1.089233 -0.957032 -14.026534 10.442388 -64.271622 161.648038 -65.271091 154.822043 0.000000 0.000000 0.000000 7.192792 3.703132 0.642718 -6.477227 3.070899 4.515032 -2.240785 1.564348 7.282823 -13.196317 40.718726 54.130185 -176.533288 65.618570 -176.322495 0.000000 0.000000 0.000000 
8.839675 77.297379 -14.464434 0.000000 0.000000 0.000000 2.992528 -77.101573 7.536248 -37.857498 -10.881279 23.761094 51.128242 -16.746111 7.443029 -3.893185 1.465773 -22.782197 -17.005020 -1.803632 -3.311014 0.000000 0.000000 0.000000 6.019269 -75.617407 9.990832 -20.813113 0.211414 -26.892471 45.656874 18.178326 -7.745939 -22.508564 -17.270565 34.479495 0.608310 13.615368 -36.753767 0.000000 0.000000 0.000000 1.726714 -74.382112 4.406915 -0.416404 5.329492 4.365174 5.304169 2.961111 1.897295 0.272203 -0.553996 0.094101 0.000000 0.000000 0.000000 6.935599 4.470048 2.072193 -8.033067 11.138221 0.133035 -4.475866 10.504566 -9.362350 0.000000 0.000000 0.000000 4.939474 3.726509 1.202966 -0.072924 8.342549 -2.940056 -0.976877 -0.153757 -1.614369 -12.260975 8.157165 -65.247807 160.892920 -63.985854 154.502349 0.000000 0.000000 0.000000 7.435247 4.031252 0.976404 -6.722339 1.377146 3.846061 -2.682276 1.572381 7.598854 -12.821833 40.812545 53.805324 -176.351359 64.722012 -176.054656 0.000000 0.000000 0.000000 
8.669258 79.354675 -14.238737 0.000000 0.000000 0.000000 0.911127 -75.228639 4.987668 -40.104822 -10.634381 23.409483 48.373490 -18.456816 8.158669 -2.403109 -1.445391 -24.158167 -13.728252 -1.934328 -3.413675 0.000000 0.000000 0.000000 4.220407 -73.564190 7.668238 -21.005361 -1.437612 -26.892166 45.766738 18.213726 -7.231482 -15.848435 -14.968068 33.125533 -5.674160 15.583235 -34.193703 0.000000 0.000000 0.000000 -1.181110 -72.503701 1.343947 -1.227536 5.275293 4.297648 5.075864 2.991925 2.012811 0.121208 -0.870648 0.059162 0.000000 0.000000 0.000000 7.116991 4.543731 2.102524 -8.183400 10.956354 -0.094368 -2.911267 10.841637 -9.744089 0.000000 0.000000 0.000000 5.179840 3.677999 1.327407 -0.597281 7.607261 -2.298178 0.758005 0.384043 -1.682980 -11.109877 4.639573 -64.788832 161.489468 -62.605534 155.624371 0.000000 0.000000 0.000000 7.404742 3.998144 1.137239 -6.917924 0.173834 3.114563 -2.769755 1.703193 7.595187 -10.754627 39.943206 52.571129 -176.352220 62.836764 -175.920019 0.000000 0.000000 0.000000 
8.417657 83.858246 -14.172171 0.000000 0.000000 0.000000 0.641623 -71.293979 4.028653 -41.856834 -9.943961 21.861130 41.995988 -19.906540 7.786580 2.811616 -4.784325 -26.594952 -12.668853 -2.262702 -2.546553 0.000000 0.000000 0.000000 1.824032 -69.858861 5.256882 -25.160662 -0.320550 -28.528411 48.410800 21.197366 -7.365954 1.564448 -6.921506 36.261071 -8.289871 14.339120 -27.702064 0.000000 0.000000 0.000000 -2.342653 -68.906261 -0.011244 -1.844468 4.944294 4.033056 4.729205 2.706712 1.946734 -0.060328 -1.005928 0.065785 0.000000 0.000000 0.000000 6.813948 4.288665 2.014812 -8.051581 10.745497 -0.341566 -1.590211 10.755919 -9.579677 0.000000 0.000000 0.000000 5.053868 3.340794 1.321200 -0.968312 6.734875 -1.712874 2.265597 0.479148 -1.180437 -10.501435 0.716959 -63.368289 163.176006 -61.348718 157.924683 0.000000 0.000000 0.000000 7.145635 3.620211 1.127664 -7.055680 -0.409739 2.341130 -2.668137 1.601013 7.234914 -7.452395 38.056909 50.455669 -176.737210 60.274425 -175.787595 0.000000 0.000000 0.000000 
